<svg width="20" height="12" viewBox="0 0 20 12" fill="none" xmlns="http://www.w3.org/2000/svg">
<path d="M13.8853 0.164778L13.5696 0.496184C13.3604 0.715841 13.3604 1.072 13.5696 1.2917L17.3164 5.20314H0.535715C0.239866 5.20314 0 5.455 0 5.76564L0 6.23439C0 6.54503 0.239866 6.79689 0.535715 6.79689H17.3164L13.5696 10.7083C13.3604 10.928 13.3604 11.2841 13.5696 11.5039L13.8853 11.8353C14.0945 12.0549 14.4337 12.0549 14.6429 11.8353L19.8431 6.39775C20.0523 6.1781 20.0523 5.82194 19.8431 5.60224L14.6429 0.164778C14.4337 -0.0549258 14.0945 -0.0549258 13.8853 0.164778Z" fill="#00F69B"/>
</svg>
