<svg xmlns="http://www.w3.org/2000/svg" width="22" height="22" viewBox="0 0 264.583 264.583" style="fill:#399bda"><path d="M132.292 264.584c-53.507 0-101.745-32.232-122.222-81.666S.912 76.583 38.747 38.748s94.736-49.153 144.17-28.677 81.666 68.715 81.666 122.222c-.146 73.002-59.29 132.146-132.292 132.292zm0-251.354C66.535 13.23 13.23 66.535 13.23 132.292s53.306 119.062 119.063 119.063 119.063-53.306 119.063-119.062C251.21 66.596 197.988 13.375 132.292 13.23zm-13.23 152.135v-5.292a43.92 43.92 0 0 1 3.44-18.785c3.27-6.146 7.773-11.55 13.23-15.875q13.494-11.112 16.933-16.933a25.93 25.93 0 0 0 3.44-13.758c.385-5.9-1.955-11.653-6.35-15.6q-6.35-5.292-18.52-5.292a62.97 62.97 0 0 0-15.081 1.852c-5.874 1.564-11.554 3.783-16.933 6.615l-5.82-13.23a82.55 82.55 0 0 1 38.894-10.054q18.785 0 29.104 9.26 10.32 9.26 10.583 26.194c.1 4.308-.516 8.603-1.852 12.7a37.04 37.04 0 0 1-5.821 10.319 136.26 136.26 0 0 1-16.14 15.61 60.59 60.59 0 0 0-13.229 14.023 29.9 29.9 0 0 0-3.175 15.081v3.175zM114.3 194.47q0-13.23 11.642-13.23c3.36-.242 6.654 1.018 8.996 3.44a14.55 14.55 0 0 1 3.175 10.054c.22 3.548-.914 7.047-3.175 9.8-2.26 2.38-5.456 3.638-8.73 3.44-3.13.096-6.172-1.044-8.467-3.175-2.473-2.74-3.716-6.373-3.44-10.054z"/></svg>