<svg xmlns="http://www.w3.org/2000/svg" viewBox="0 0 75 90"><circle cx="37.5" cy="45" r="36.33" fill="#e4e8ef"/><g stroke="#636b77" stroke-miterlimit="10"><path d="M16.08,85.27a10.51,10.51,0,1,1,5.58,1.6" fill="#fff"/><path d="M17.15 42.8H13.6" fill="none"/></g><path d="M19.16 33.37h39.8V56.1h-39.8z" fill="#fff"/><g stroke="#636b77" stroke-miterlimit="10"><path d="M19.16 47.7V33.37h39.8v22.75h-39.8v-5.06" fill="none"/><path d="M51.9 51.7H26.24a2.63 2.63 0 0 0-2.65-2.6v-8.7a2.63 2.63 0 0 0 2.65-2.61H51.9a2.64 2.64 0 0 0 2.64 2.64v8.66a2.63 2.63 0 0 0-2.65 2.6z" fill="#ffad8c"/><path d="M28.64 44.74h1.9m17.06 0h2.48" fill="none"/><path d="M35,44.74a4.12,4.12,0,1,1,4.1,4.43A4.27,4.27,0,0,1,35,44.74Z" fill="#fff"/><path d="M21.7 47.9h-8.4" fill="none"/><path d="M21.9 74.87a2.47 2.47 0 0 1-2.48-2.42v-.8a2.5 2.5 0 0 1 5 0v.8a2.47 2.47 0 0 1-2.52 2.42zM23.77 82h-7.43v-2.47a3.57 3.57 0 0 1 3.44-3.39h3.95a3.57 3.57 0 0 1 3.44 3.39V82" fill="#ffad8c" stroke-width=".8"/><path d="M32.52,4.77a10,10,0,1,1-3.89,3.91" fill="#fff"/><g fill="#ffad8c"><path d="M37.6 12.07a2.35 2.35 0 0 1-2.35-2.31V9A2.375 2.375 0 0 1 40 9v.76a2.35 2.35 0 0 1-2.39 2.31zm1.78 6.8H32.3V16.5a3.4 3.4 0 0 1 3.28-3.23h3.75a3.4 3.4 0 0 1 3.28 3.23v2.37" stroke-width=".8"/><path d="M53.33,67a8.77,8.77,0,1,1-1.42,4.64"/></g><path d="M60.9 70.5a2.07 2.07 0 0 1-2.07-2v-.67a2.07 2.07 0 0 1 4.14 0v.67a2.07 2.07 0 0 1-2.07 2zm1.54 5.98h-6.2V74.4a3 3 0 0 1 2.88-2.84h3.3a3 3 0 0 1 2.88 2.84v2.07" fill="#fff"/><path d="M39.08 31.34l-.92-6.08M27.38 64.1l2.66-5.55m26 3.85l-1.92-4.58" fill="none"/></g></svg>