<?xml version="1.0" encoding="UTF-8"?>
<svg width="22px" height="23px" viewBox="0 0 22 23" version="1.1" xmlns="http://www.w3.org/2000/svg" xmlns:xlink="http://www.w3.org/1999/xlink">
    <!-- Generator: Sketch 61.2 (89653) - https://sketch.com -->
    <title>Shape</title>
    <desc>Created with Sketch.</desc>
    <g id="Page-1" stroke="none" stroke-width="1" fill="none" fill-rule="evenodd">
        <g id="Legacy-HP-+-webnav" transform="translate(-1115.000000, -261.000000)" fill="#399BDA" fill-rule="nonzero">
            <g id="Group-10" transform="translate(240.000000, 247.000000)">
                <g id="Screen-Shot-2019-01-02-at-15.22.37">
                    <g id="notification" transform="translate(874.000000, 12.000000)">
                        <g id="icon/notifications-grey" transform="translate(0.000000, 2.000000)">
                            <path d="M1.59219704,9.31571443 C-0.287489102,2.88114879 5.0782476,0.0281087687 5.14298169,0 L5.42109852,0.517669824 L5.69442023,1.04705163 C5.50741064,1.14543233 1.13905841,3.5018841 2.74542284,9.01120277 L1.59219704,9.31571443 Z M21.2521796,8.99480599 L22.4054054,9.31571443 C24.2802964,2.88114879 18.9145597,0.0281087687 18.8594159,0 L18.2983871,1.04705163 C18.4853967,1.13372034 22.8561465,3.49017212 21.2473845,8.99480599 L21.2521796,8.99480599 Z M14.6493025,18.8820654 L14.6493025,20.6576026 C14.6493025,21.3064467 14.1889712,23 12.0863121,23 C10.7053182,23 10.0363993,22.3464711 9.71752398,21.7960077 C9.50604939,21.4298956 9.38841683,21.0192154 9.37467306,20.5990427 L9.37467306,18.8820654 L1,18.8820654 L1.73365301,17.9451064 C4.68025283,14.164477 4.71381866,11.4449537 4.74258936,9.04868113 C4.76176983,7.25674712 4.78334786,5.56553621 5.99651264,3.81108056 C7.79707934,1.20633466 10.7916303,0.92524697 11.9904098,0.92524697 C13.1891892,0.92524697 16.2029207,1.20633466 18.0058849,3.81108056 C19.2190497,5.56553621 19.2382302,7.25674712 19.2598082,9.04868113 C19.2885789,11.4449537 19.3221447,14.1621346 22.266347,17.9497912 L23,18.8867502 L14.6493025,18.8820654 Z M3.38077594,17.7108667 L20.6216216,17.7108667 C18.1209677,14.0895203 18.0897995,11.323149 18.0610288,9.06273551 C18.0418483,7.38323658 18.0226678,5.9309502 17.010898,4.46695183 C15.5316042,2.32834301 13.0141674,2.09644567 12,2.09644567 C10.9858326,2.09644567 8.47079337,2.33068541 6.98910201,4.46695183 C5.97733217,5.9309502 5.96054926,7.38323658 5.93897123,9.06273551 C5.91259808,11.323149 5.87903226,14.0895203 3.37837838,17.7108667 L3.38077594,17.7108667 Z M13.4505231,18.8820654 L10.5734525,18.8820654 L10.5734525,20.5943579 C10.5734525,20.7958041 10.6693548,21.8241165 12.0863121,21.8241165 C13.3306452,21.8241165 13.445728,20.9269783 13.4505231,20.6529178 L13.4505231,18.8820654 Z" id="Shape"></path>
                        </g>
                    </g>
                </g>
            </g>
        </g>
    </g>
</svg>