<svg xmlns="http://www.w3.org/2000/svg" viewBox="0 0 75 90"><style><![CDATA[.H{stroke:#636b77}.I{stroke-miterlimit:10}.J{fill:#ffad8c}]]></style><circle cx="37.81" cy="43.49" r="34.64" fill="#e4e8ef"/><g fill="#fff" class="H I"><path d="M49.37 44.26l-.22-.26a2.75 2.75 0 0 1-.27-3.84L53 36.28c1.5-1.43 3.65-1.63 4.77-.45l.22.23c1.12 1.2.8 3.32-.7 4.75l-4.15 3.9a2.74 2.74 0 0 1-3.78-.46zm-21.05 5.2l-5.38-2-7.2 22.77 1.2 1a26.37 26.37 0 0 1 3.74 4.08l7 1 4-4c10.24.75 15-6.8 16-8S28.32 49.45 28.32 49.45z"/><rect x="26.7" y="21.3" width="26" height="44" rx="3"/><path d="M26.7 26.3h26v31h-26zm25.43 38.1l-.22-.2c-1.13-1-1.55-2.35-.93-3.06l2.6-3a2.69 2.69 0 0 1 3.77-.22l.22.2a2.67 2.67 0 0 1 .33 3.76l-2.62 3c-.6.7-2.03.5-3.16-.48z"/><path d="M29.25 66.7c2.72-7.8.46-14.33-2-17.44a36.45 36.45 0 0 0 1.8-9 7.78 7.78 0 0 0-1.63-5.21 2.19 2.19 0 0 0-3.74.47c-2.05 6.57-2.43 8.36-3.7 11.66-1.42 3.7-.6 8.87-1.3 10.4-.14.3-4.9 6.44-6.23 8.3 1.4.7 4.35 2 5.5 3a26.92 26.92 0 0 1 3.88 4.23l3.07 1.46"/></g><g class="J H I"><path d="M22.82 82.13l2.06 2.16 6-6.22-17.63-17-6 6.2 9.5 9"/><path d="M25.45 78.7l-1.96-1.97"/></g><g fill="#fff"><path d="M52.15 57.4l-.22-.2c-1.15-1-1.58-2.4-1-3.12l2.7-3.08a2.71 2.71 0 0 1 3.83-.23l.23.2a2.73 2.73 0 0 1 .3 3.85l-2.66 3.06c-.6.73-2.04.5-3.2-.48z" class="H I"/><path d="M52.15 50.58l-.23-.2c-1.14-1-1.57-2.4-.94-3.12l2.66-3.06a2.72 2.72 0 0 1 3.83-.21l.23.2A2.73 2.73 0 0 1 58 48l-2.66 3.06c-.6.73-2.04.5-3.2-.48zM36.7 61.3h6" class="H I"/><path d="M27.03 65.76l4.7 1.98-3.2 2.4-3.96-2.2 2.47-2.2zM68.5 28.88H50.85L45 34.76V11.23a3.93 3.93 0 0 1 3.92-3.92H68.5a3.93 3.93 0 0 1 3.92 3.92V25a3.93 3.93 0 0 1-3.92 3.88z"/></g><g fill="none"><path d="M68.47 28.88H50.82l-5.88 5.88V11.23a3.93 3.93 0 0 1 3.92-3.92h19.6a3.92 3.92 0 0 1 3.92 3.92V25a3.92 3.92 0 0 1-3.92 3.88z" class="H I"/><g stroke="#646b77"><circle cx="60.14" cy="24.44" r="1.8"/><circle cx="56.72" cy="11.58" r="1.4"/></g></g><path d="M54.3 23.15l-1.5-5.7.2-2.37 1.42-2 2.18-1.2 2.6-.37 1.54.73A3.61 3.61 0 0 1 62 13.33c.4.5.34-.06 1.1 1.22a6.59 6.59 0 0 1 .45 1.45l.25 1.1.3 1.32.57 2.47 1 .56.38.8-12.3 3.15-.1-1.1z" class="J"/><g fill="none" class="H I"><path d="M62.7 14.07A5.51 5.51 0 0 0 57 11.73a5.42 5.42 0 0 0-4.2 5.72l1.45 6a2.19 2.19 0 0 0-.68 1.91l12.66-3.14a1.68 1.68 0 0 0-1.57-1.34l-1.14-4.78"/><path d="M54.25 23.44l3.73-.93"/></g><path d="M46.72 38.33s1 .66 0 .8A12.17 12.17 0 0 0 40.47 42s-4 3.5-5.5 7.33c0 0-.5 0-.33-.75s1.16-4 5.62-8.08c0 0 4.3-3.9 6.46-2.2m-11.5 0c0 .9.83 4.4.83 4.4.3.7.54 0 .54 0a4.23 4.23 0 0 0-1-4.54c-.5-.3-.37.13-.37.13" class="J"/></svg>