<svg xmlns="http://www.w3.org/2000/svg" xmlns:xlink="http://www.w3.org/1999/xlink" viewBox="0 0 75 90"><style><![CDATA[.I{stroke:#636b77}.J{stroke-miterlimit:10}.K{fill:none}]]></style><defs><clipPath id="A"><circle cx="38.43" cy="48.88" r="30.5" class="K"/></clipPath><clipPath id="B"><circle cx="15.31" cy="19.27" r="11.75" class="K"/></clipPath><path id="C" d="M38.54 56.08a11.81 11.81 0 0 0 11.86-11.5V40.8a11.87 11.87 0 0 0-23.73 0v3.78a11.82 11.82 0 0 0 11.87 11.5z"/><path id="D" d="M57.08 77.64a1.79 1.79 0 0 0 1.8 1.79h1.8a1.8 1.8 0 0 0 1.8-1.79v-.5a1.81 1.81 0 0 0-1.23-1.71l-2.93-1a1.8 1.8 0 0 1-1.23-1.71v-.5a1.79 1.79 0 0 1 1.8-1.79h1.8a1.8 1.8 0 0 1 1.8 1.79"/></defs><path d="M30.74,78.4a30.53,30.53,0,1,0-13.62-7.71,30.15,30.15,0,0,0,4.82,3.85" fill="#e4e8ef" class="I J"/><g clip-path="url(#A)"><g fill="#ffad8c"><use xlink:href="#C"/><path d="M48.82 91.17H15.6v-12.6c0-10.2 8.4-17.16 15.1-17.16H48c6.7 0 15.1 7 15.1 17.16v12.6"/></g><g class="I J K"><use xlink:href="#C"/><path d="M15.6 91.17V77.4c0-9.5 8.42-16 15.14-16H48c3.3 0 6.68 2 9.4 4.73"/></g></g><path d="M30.74,78.4a30.53,30.53,0,1,0-13.62-7.71,30.15,30.15,0,0,0,4.82,3.85" class="I J K"/><g fill="#fff"><path d="M71.44,75A11.67,11.67,0,1,1,59.77,63.28,11.66,11.66,0,0,1,71.44,75"/><path d="M67.23,83.92a11.67,11.67,0,1,1,4.21-9,11.51,11.51,0,0,1-.52,3.44" class="I J"/><use xlink:href="#D"/><g class="I J"><use xlink:href="#D"/><path d="M59.77 70.46v-2.7m0 11.67v2.7M24.7 7.5h8.24"/><path d="M28.8 3.4v8.25"/></g><path d="M3.94,16.3a11.77,11.77,0,1,0,3-5.25,11.92,11.92,0,0,0-1.49,1.86"/></g><g clip-path="url(#B)"><g fill="#fff"><path d="M15.35 22a4.55 4.55 0 0 0 4.58-4.43v-1.42a4.58 4.58 0 0 0-9.15 0v1.46A4.55 4.55 0 0 0 15.35 22zm3.97 13.56H6.5V30.7c0-3.93 3.24-6.6 5.82-6.6H19c2.6 0 5.82 2.68 5.82 6.6v4.85"/></g><g class="I J K"><path d="M15.35 21.84a4.55 4.55 0 0 0 4.58-4.43V16a4.58 4.58 0 0 0-9.15 0v1.45a4.55 4.55 0 0 0 4.57 4.39zM6.5 35.56v-5.3a6.25 6.25 0 0 1 5.84-6.15H19a5.42 5.42 0 0 1 3.63 1.82"/></g></g><path d="M3.94,16.3a11.77,11.77,0,1,0,3-5.25,11.92,11.92,0,0,0-1.49,1.86" class="I J K"/></svg>